<mxfile host="app.diagrams.net" agent="Mozilla/5.0 (Macintosh; Intel Mac OS X 10_15_7) AppleWebKit/537.36 (KHTML, like Gecko) Chrome/129.0.0.0 Safari/537.36" version="24.8.0">
  <diagram name="Page-1" id="QUatM0a3X-eX3-ZyX8t9">
    <mxGraphModel dx="954" dy="1665" grid="1" gridSize="10" guides="1" tooltips="1" connect="1" arrows="1" fold="1" page="1" pageScale="1" pageWidth="827" pageHeight="1169" math="0" shadow="0">
      <root>
        <mxCell id="0" />
        <mxCell id="1" parent="0" />
        <mxCell id="E2aT2Wicu7h2aFI-ZZVZ-1" value="WhatsApp App" style="whiteSpace=wrap;html=1;aspect=fixed;" vertex="1" parent="1">
          <mxGeometry x="140" y="-10" width="80" height="80" as="geometry" />
        </mxCell>
        <mxCell id="E2aT2Wicu7h2aFI-ZZVZ-2" value="User" style="shape=umlActor;verticalLabelPosition=bottom;verticalAlign=top;html=1;outlineConnect=0;" vertex="1" parent="1">
          <mxGeometry x="30" y="120" width="30" height="60" as="geometry" />
        </mxCell>
        <mxCell id="E2aT2Wicu7h2aFI-ZZVZ-4" value="DNS Server (Website&lt;span style=&quot;background-color: initial;&quot;&gt;)&lt;/span&gt;&lt;div&gt;&lt;div&gt;www.soulcanvas.online&lt;/div&gt;&lt;/div&gt;" style="whiteSpace=wrap;html=1;aspect=fixed;" vertex="1" parent="1">
          <mxGeometry x="100" y="240" width="160" height="160" as="geometry" />
        </mxCell>
        <mxCell id="E2aT2Wicu7h2aFI-ZZVZ-6" value="EC2 Public IPv4" style="whiteSpace=wrap;html=1;" vertex="1" parent="1">
          <mxGeometry x="360" y="290" width="120" height="60" as="geometry" />
        </mxCell>
        <mxCell id="E2aT2Wicu7h2aFI-ZZVZ-8" value="Nginx &amp;amp;&lt;div&gt;&lt;div&gt;SSL Certificate&lt;/div&gt;&lt;/div&gt;" style="whiteSpace=wrap;html=1;" vertex="1" parent="1">
          <mxGeometry x="560" y="290" width="120" height="60" as="geometry" />
        </mxCell>
        <mxCell id="E2aT2Wicu7h2aFI-ZZVZ-10" value="based on route redirect to Soulcanvas&amp;nbsp;&lt;div&gt;API&#39;s endpoint&lt;/div&gt;" style="whiteSpace=wrap;html=1;" vertex="1" parent="1">
          <mxGeometry x="760" y="290" width="120" height="60" as="geometry" />
        </mxCell>
        <mxCell id="E2aT2Wicu7h2aFI-ZZVZ-18" value="" style="endArrow=classic;startArrow=classic;html=1;rounded=0;exitX=1;exitY=0.5;exitDx=0;exitDy=0;entryX=0;entryY=0.5;entryDx=0;entryDy=0;" edge="1" parent="1" source="E2aT2Wicu7h2aFI-ZZVZ-4" target="E2aT2Wicu7h2aFI-ZZVZ-6">
          <mxGeometry width="50" height="50" relative="1" as="geometry">
            <mxPoint x="300" y="230" as="sourcePoint" />
            <mxPoint x="350" y="180" as="targetPoint" />
          </mxGeometry>
        </mxCell>
        <mxCell id="E2aT2Wicu7h2aFI-ZZVZ-19" value="" style="endArrow=classic;startArrow=classic;html=1;rounded=0;exitX=1;exitY=0.5;exitDx=0;exitDy=0;entryX=0;entryY=0.5;entryDx=0;entryDy=0;" edge="1" parent="1" source="E2aT2Wicu7h2aFI-ZZVZ-6" target="E2aT2Wicu7h2aFI-ZZVZ-8">
          <mxGeometry width="50" height="50" relative="1" as="geometry">
            <mxPoint x="480" y="400" as="sourcePoint" />
            <mxPoint x="580" y="400" as="targetPoint" />
          </mxGeometry>
        </mxCell>
        <mxCell id="E2aT2Wicu7h2aFI-ZZVZ-20" value="" style="endArrow=classic;startArrow=classic;html=1;rounded=0;exitX=1;exitY=0.5;exitDx=0;exitDy=0;entryX=0;entryY=0.5;entryDx=0;entryDy=0;" edge="1" parent="1" source="E2aT2Wicu7h2aFI-ZZVZ-8" target="E2aT2Wicu7h2aFI-ZZVZ-10">
          <mxGeometry width="50" height="50" relative="1" as="geometry">
            <mxPoint x="490" y="330" as="sourcePoint" />
            <mxPoint x="570" y="330" as="targetPoint" />
            <Array as="points" />
          </mxGeometry>
        </mxCell>
        <mxCell id="E2aT2Wicu7h2aFI-ZZVZ-21" value="" style="endArrow=classic;startArrow=classic;html=1;rounded=0;entryX=0.5;entryY=0;entryDx=0;entryDy=0;" edge="1" parent="1" source="E2aT2Wicu7h2aFI-ZZVZ-2" target="E2aT2Wicu7h2aFI-ZZVZ-4">
          <mxGeometry width="50" height="50" relative="1" as="geometry">
            <mxPoint x="100" y="200" as="sourcePoint" />
            <mxPoint x="150" y="150" as="targetPoint" />
            <Array as="points">
              <mxPoint x="180" y="150" />
            </Array>
          </mxGeometry>
        </mxCell>
        <mxCell id="E2aT2Wicu7h2aFI-ZZVZ-22" value="" style="endArrow=classic;startArrow=classic;html=1;rounded=0;entryX=0.5;entryY=1;entryDx=0;entryDy=0;exitX=1;exitY=0.3333333333333333;exitDx=0;exitDy=0;exitPerimeter=0;" edge="1" parent="1" source="E2aT2Wicu7h2aFI-ZZVZ-2" target="E2aT2Wicu7h2aFI-ZZVZ-1">
          <mxGeometry width="50" height="50" relative="1" as="geometry">
            <mxPoint x="130" y="150" as="sourcePoint" />
            <mxPoint x="180" y="100" as="targetPoint" />
            <Array as="points">
              <mxPoint x="180" y="140" />
            </Array>
          </mxGeometry>
        </mxCell>
        <mxCell id="E2aT2Wicu7h2aFI-ZZVZ-24" value="WhatsApp SoulCanvas Bot" style="whiteSpace=wrap;html=1;" vertex="1" parent="1">
          <mxGeometry x="280" width="120" height="60" as="geometry" />
        </mxCell>
        <mxCell id="E2aT2Wicu7h2aFI-ZZVZ-26" value="WhatsApp Bot sends User Number &amp;amp; Msg&lt;div&gt;to Call Back URL&lt;/div&gt;" style="whiteSpace=wrap;html=1;" vertex="1" parent="1">
          <mxGeometry x="480" width="120" height="60" as="geometry" />
        </mxCell>
        <mxCell id="E2aT2Wicu7h2aFI-ZZVZ-28" value="" style="endArrow=classic;startArrow=classic;html=1;rounded=0;exitX=1;exitY=0.5;exitDx=0;exitDy=0;" edge="1" parent="1" source="E2aT2Wicu7h2aFI-ZZVZ-1">
          <mxGeometry width="50" height="50" relative="1" as="geometry">
            <mxPoint x="250" y="160" as="sourcePoint" />
            <mxPoint x="279" y="30" as="targetPoint" />
          </mxGeometry>
        </mxCell>
        <mxCell id="E2aT2Wicu7h2aFI-ZZVZ-29" value="" style="endArrow=classic;startArrow=classic;html=1;rounded=0;exitX=1;exitY=0.5;exitDx=0;exitDy=0;entryX=0;entryY=0.5;entryDx=0;entryDy=0;" edge="1" parent="1" source="E2aT2Wicu7h2aFI-ZZVZ-24" target="E2aT2Wicu7h2aFI-ZZVZ-26">
          <mxGeometry width="50" height="50" relative="1" as="geometry">
            <mxPoint x="414" y="90" as="sourcePoint" />
            <mxPoint x="473" y="90" as="targetPoint" />
          </mxGeometry>
        </mxCell>
        <mxCell id="E2aT2Wicu7h2aFI-ZZVZ-30" value="" style="endArrow=classic;startArrow=classic;html=1;rounded=0;exitX=0.5;exitY=1;exitDx=0;exitDy=0;entryX=1;entryY=0;entryDx=0;entryDy=0;" edge="1" parent="1" source="E2aT2Wicu7h2aFI-ZZVZ-26" target="E2aT2Wicu7h2aFI-ZZVZ-4">
          <mxGeometry width="50" height="50" relative="1" as="geometry">
            <mxPoint x="490" y="100" as="sourcePoint" />
            <mxPoint x="570" y="100" as="targetPoint" />
            <Array as="points">
              <mxPoint x="540" y="240" />
            </Array>
          </mxGeometry>
        </mxCell>
        <mxCell id="E2aT2Wicu7h2aFI-ZZVZ-31" value="" style="rounded=0;whiteSpace=wrap;html=1;fillColor=none;dashed=1;" vertex="1" parent="1">
          <mxGeometry x="80" y="-70" width="570" height="180" as="geometry" />
        </mxCell>
        <mxCell id="E2aT2Wicu7h2aFI-ZZVZ-33" value="" style="rounded=0;whiteSpace=wrap;html=1;fillColor=none;dashed=1;" vertex="1" parent="1">
          <mxGeometry x="95" y="450" width="570" height="180" as="geometry" />
        </mxCell>
        <mxCell id="E2aT2Wicu7h2aFI-ZZVZ-32" value="WhatsApp" style="text;html=1;align=center;verticalAlign=middle;resizable=0;points=[];autosize=1;strokeColor=none;fillColor=none;" vertex="1" parent="1">
          <mxGeometry x="80" y="-70" width="80" height="30" as="geometry" />
        </mxCell>
        <mxCell id="E2aT2Wicu7h2aFI-ZZVZ-34" value="AWS / VPC" style="text;html=1;align=center;verticalAlign=middle;resizable=0;points=[];autosize=1;strokeColor=none;fillColor=none;" vertex="1" parent="1">
          <mxGeometry x="90" y="450" width="90" height="30" as="geometry" />
        </mxCell>
        <mxCell id="E2aT2Wicu7h2aFI-ZZVZ-35" value="Query" style="text;html=1;align=center;verticalAlign=middle;resizable=0;points=[];autosize=1;strokeColor=none;fillColor=none;" vertex="1" parent="1">
          <mxGeometry x="190" y="198" width="60" height="30" as="geometry" />
        </mxCell>
        <mxCell id="E2aT2Wicu7h2aFI-ZZVZ-36" value="Query" style="text;html=1;align=center;verticalAlign=middle;resizable=0;points=[];autosize=1;strokeColor=none;fillColor=none;" vertex="1" parent="1">
          <mxGeometry x="190" y="70" width="60" height="30" as="geometry" />
        </mxCell>
        <mxCell id="E2aT2Wicu7h2aFI-ZZVZ-37" value="Response" style="text;html=1;align=center;verticalAlign=middle;resizable=0;points=[];autosize=1;strokeColor=none;fillColor=none;" vertex="1" parent="1">
          <mxGeometry x="60" y="150" width="80" height="30" as="geometry" />
        </mxCell>
        <mxCell id="E2aT2Wicu7h2aFI-ZZVZ-38" value="Response" style="text;html=1;align=center;verticalAlign=middle;resizable=0;points=[];autosize=1;strokeColor=none;fillColor=none;" vertex="1" parent="1">
          <mxGeometry x="60" y="110" width="80" height="30" as="geometry" />
        </mxCell>
        <mxCell id="E2aT2Wicu7h2aFI-ZZVZ-42" style="edgeStyle=orthogonalEdgeStyle;rounded=0;orthogonalLoop=1;jettySize=auto;html=1;" edge="1" parent="1" source="E2aT2Wicu7h2aFI-ZZVZ-40" target="E2aT2Wicu7h2aFI-ZZVZ-41">
          <mxGeometry relative="1" as="geometry" />
        </mxCell>
        <mxCell id="E2aT2Wicu7h2aFI-ZZVZ-40" value="Mental Health Datasets :&amp;nbsp;&lt;div&gt;CSV &amp;amp; PDFs&lt;/div&gt;" style="shape=document;whiteSpace=wrap;html=1;boundedLbl=1;" vertex="1" parent="1">
          <mxGeometry x="1200" y="-30" width="120" height="80" as="geometry" />
        </mxCell>
        <mxCell id="E2aT2Wicu7h2aFI-ZZVZ-41" value="ChromaDB" style="shape=cylinder3;whiteSpace=wrap;html=1;boundedLbl=1;backgroundOutline=1;size=15;" vertex="1" parent="1">
          <mxGeometry x="940" y="-40" width="80" height="100" as="geometry" />
        </mxCell>
        <mxCell id="E2aT2Wicu7h2aFI-ZZVZ-43" value="Document Loaders &amp;amp;&lt;div&gt;LangChain&amp;nbsp;&lt;span style=&quot;background-color: initial;&quot;&gt;TextSplitters&lt;/span&gt;&lt;/div&gt;" style="text;html=1;align=center;verticalAlign=middle;resizable=0;points=[];autosize=1;strokeColor=none;fillColor=none;" vertex="1" parent="1">
          <mxGeometry x="1035" y="-50" width="150" height="40" as="geometry" />
        </mxCell>
      </root>
    </mxGraphModel>
  </diagram>
</mxfile>
